<svg width="34" height="34" viewBox="0 0 34 34" fill="none" xmlns="http://www.w3.org/2000/svg">
<path d="M17 0C7.61135 0 0 7.61134 0 17C0 26.3887 7.61135 34 17 34C26.3887 34 34 26.3887 34 17C34.0001 7.61134 26.3888 0 17 0ZM6.57101 24.7379C5.17812 22.7596 4.33174 20.1264 4.25351 17.7816H11.5288C11.2638 20.1264 8.79785 23.5132 6.57101 24.7379ZM17 29.766C14.5434 29.766 12.2548 29.0673 10.3118 27.862C11.2911 26.4949 12.4745 23.7734 17.3267 23.7734C22.0164 23.7734 23.1575 25.6595 24.3416 27.4283C22.2665 28.8985 19.7379 29.766 17 29.766ZM14.9483 18.1724C14.9483 16.9311 15.9543 15.9253 17.1954 15.9253C18.4367 15.9253 19.4425 16.9312 19.4425 18.1724C19.4425 19.4136 18.4366 20.4195 17.1954 20.4195C15.9543 20.4195 14.9483 19.4136 14.9483 18.1724ZM27.5845 24.4972C24.0954 23.095 23.6445 20.1264 23.399 17.7816H29.7465C29.6715 20.1264 28.8805 22.565 27.5845 24.4972ZM4.73576 13.8735C6.26466 8.40222 11.1708 4.62475 17 4.62475C22.8292 4.62475 27.7354 8.4023 29.2642 13.8735H4.73576Z" fill="white"/>
</svg>
