<svg width="108" height="138" viewBox="0 0 108 138" fill="none" xmlns="http://www.w3.org/2000/svg">
<path d="M46.1648 107.798C40.7846 112.77 33.3431 113.883 26.7428 110.706C24.3568 109.557 22.3432 107.97 20.7669 106.07L11.7798 125.946C11.3709 126.851 11.8275 127.532 12.0426 127.783C12.2577 128.034 12.8618 128.589 13.8176 128.323L20.3601 126.502C21.1057 126.295 21.8594 126.195 22.6025 126.195C25.7377 126.195 28.6885 127.969 30.1093 130.909L33.0641 137.024C33.4956 137.917 34.3051 138.006 34.642 138C34.9725 137.995 35.7855 137.888 36.1941 136.984L50.4892 105.367C48.9185 105.819 47.4311 106.628 46.1648 107.798Z" fill="#FF0000"/>
<path d="M96.2201 125.946L87.233 106.07C85.6567 107.97 83.6431 109.557 81.2571 110.706C74.6566 113.883 67.2153 112.77 61.8351 107.798C60.5688 106.628 59.0814 105.819 57.5102 105.367L71.8053 136.984C72.2142 137.888 73.0271 137.995 73.3573 138C73.6943 138.006 74.5037 137.917 74.9353 137.024L77.8901 130.909C79.3106 127.969 82.2617 126.195 85.3968 126.195C86.14 126.195 86.8939 126.295 87.6392 126.502L94.1818 128.323C95.1376 128.589 95.7419 128.034 95.9567 127.783C96.1724 127.532 96.629 126.85 96.2201 125.946Z" fill="#FF0000"/>
<path d="M103.28 56.0061C95.8158 50.8958 93.4998 40.7493 98.0072 32.9068C100.716 28.1924 99.3065 23.5338 97.0835 20.7461C94.8602 17.9591 90.6315 15.5482 85.4327 17.1398C76.7844 19.7884 67.4059 15.2733 64.084 6.85957C62.0872 1.80209 57.5654 0 54.0001 0C50.4347 0 45.913 1.80209 43.9162 6.85984C40.5943 15.2738 31.2166 19.7884 22.5675 17.14C17.3681 15.5487 13.1402 17.9591 10.9167 20.7464C8.69372 23.5341 7.2837 28.1922 9.99296 32.9071C14.5004 40.7493 12.1844 50.8961 4.72054 56.0064C0.233601 59.0788 -0.517098 63.8875 0.27592 67.3634C1.06894 70.8393 3.83237 74.8458 9.20803 75.6671C18.1501 77.0331 24.6393 85.1697 23.9818 94.1912C23.5861 99.6144 26.8782 103.2 30.0904 104.747C33.3029 106.294 38.1586 106.632 42.1523 102.941C45.4737 99.8723 49.7377 98.3371 53.9998 98.3371C58.2636 98.3371 62.5252 99.8715 65.8471 102.941C69.8413 106.632 74.6973 106.294 77.9095 104.747C81.1218 103.2 84.4135 99.6147 84.0181 94.1914C83.3606 85.17 89.8498 77.0333 98.7919 75.6671C104.168 74.8458 106.93 70.839 107.724 67.3634C108.517 63.887 107.766 59.0783 103.28 56.0061ZM54.0001 90.5417C34.4374 90.5417 18.5221 74.6275 18.5221 55.0663C18.5221 35.5051 34.4372 19.5906 54.0001 19.5906C73.563 19.5906 89.4781 35.5048 89.4781 55.066C89.4778 74.6272 73.5627 90.5417 54.0001 90.5417Z" fill="#FF0000"/>
<path d="M53.9998 26.2052C38.0845 26.2052 25.1366 39.1524 25.1366 55.0663C25.1366 70.9802 38.0842 83.9274 53.9998 83.9274C69.9154 83.9274 82.8631 70.9802 82.8631 55.0663C82.8631 39.1524 69.9152 26.2052 53.9998 26.2052ZM68.7914 52.268L50.828 65.3875C50.2579 65.8039 49.5738 66.0241 48.8773 66.0241C48.6978 66.0241 48.5174 66.0095 48.3379 65.9799C47.4621 65.8351 46.681 65.3443 46.1704 64.6177L40.7972 56.9678C39.7473 55.4727 40.1082 53.41 41.6029 52.3602C43.0978 51.3104 45.1604 51.671 46.2106 53.1658L49.6474 58.0589L64.8899 46.9267C66.3652 45.8499 68.4345 46.1712 69.5117 47.6466C70.5891 49.1215 70.2664 51.1904 68.7914 52.268Z" fill="#FF0000"/>
</svg>
