<svg width="373" height="101" viewBox="0 0 373 101" fill="none" xmlns="http://www.w3.org/2000/svg">
<path d="M42.2734 15H373L349.727 85H19L42.2734 15Z" fill="#FF0000"/>
<path d="M130.348 30.3V45H127.45V33.072H122.263V45H119.365V30.3H130.348ZM145.454 43.089C143.97 44.559 142.164 45.294 140.036 45.294C137.908 45.294 136.102 44.559 134.618 43.089C133.148 41.605 132.413 39.792 132.413 37.65C132.413 35.508 133.148 33.702 134.618 32.232C136.102 30.748 137.908 30.006 140.036 30.006C142.164 30.006 143.97 30.748 145.454 32.232C146.938 33.702 147.68 35.508 147.68 37.65C147.68 39.792 146.938 41.605 145.454 43.089ZM136.655 41.115C137.565 42.011 138.692 42.459 140.036 42.459C141.38 42.459 142.507 42.011 143.417 41.115C144.327 40.205 144.782 39.05 144.782 37.65C144.782 36.25 144.327 35.095 143.417 34.185C142.507 33.275 141.38 32.82 140.036 32.82C138.692 32.82 137.565 33.275 136.655 34.185C135.745 35.095 135.29 36.25 135.29 37.65C135.29 39.05 135.745 40.205 136.655 41.115ZM156.689 45.294C154.477 45.294 152.65 44.559 151.208 43.089C149.766 41.619 149.045 39.806 149.045 37.65C149.045 35.48 149.766 33.667 151.208 32.211C152.65 30.741 154.477 30.006 156.689 30.006C158.019 30.006 159.244 30.321 160.364 30.951C161.498 31.567 162.38 32.407 163.01 33.471L160.511 34.92C160.147 34.262 159.629 33.751 158.957 33.387C158.285 33.009 157.529 32.82 156.689 32.82C155.261 32.82 154.106 33.268 153.224 34.164C152.356 35.06 151.922 36.222 151.922 37.65C151.922 39.064 152.356 40.219 153.224 41.115C154.106 42.011 155.261 42.459 156.689 42.459C157.529 42.459 158.285 42.277 158.957 41.913C159.643 41.535 160.161 41.024 160.511 40.38L163.01 41.829C162.38 42.893 161.505 43.74 160.385 44.37C159.265 44.986 158.033 45.294 156.689 45.294ZM179.175 30.3V45H176.298V35.466L172.161 42.291H171.825L167.688 35.487V45H164.79V30.3H167.772L171.993 37.251L176.193 30.3H179.175ZM194.283 43.089C192.799 44.559 190.993 45.294 188.865 45.294C186.737 45.294 184.931 44.559 183.447 43.089C181.977 41.605 181.242 39.792 181.242 37.65C181.242 35.508 181.977 33.702 183.447 32.232C184.931 30.748 186.737 30.006 188.865 30.006C190.993 30.006 192.799 30.748 194.283 32.232C195.767 33.702 196.509 35.508 196.509 37.65C196.509 39.792 195.767 41.605 194.283 43.089ZM185.484 41.115C186.394 42.011 187.521 42.459 188.865 42.459C190.209 42.459 191.336 42.011 192.246 41.115C193.156 40.205 193.611 39.05 193.611 37.65C193.611 36.25 193.156 35.095 192.246 34.185C191.336 33.275 190.209 32.82 188.865 32.82C187.521 32.82 186.394 33.275 185.484 34.185C184.574 35.095 184.119 36.25 184.119 37.65C184.119 39.05 184.574 40.205 185.484 41.115ZM207.428 30.3V33.072H203.459V45H200.561V33.072H196.613V30.3H207.428ZM214.527 30.3C215.941 30.3 217.131 30.776 218.097 31.728C219.063 32.68 219.546 33.849 219.546 35.235C219.546 36.621 219.063 37.79 218.097 38.742C217.131 39.694 215.941 40.17 214.527 40.17H211.944V45H209.046V30.3H214.527ZM214.527 37.461C215.143 37.461 215.654 37.251 216.06 36.831C216.466 36.397 216.669 35.865 216.669 35.235C216.669 34.591 216.466 34.059 216.06 33.639C215.654 33.219 215.143 33.009 214.527 33.009H211.944V37.461H214.527ZM224.33 42.228H230.525V45H221.432V30.3H230.42V33.072H224.33V36.201H229.895V38.931H224.33V42.228ZM242.291 30.3V33.072H238.322V45H235.424V33.072H231.476V30.3H242.291ZM249.39 35.13C250.804 35.13 251.994 35.606 252.96 36.558C253.926 37.51 254.409 38.679 254.409 40.065C254.409 41.451 253.926 42.62 252.96 43.572C251.994 44.524 250.804 45 249.39 45H243.909V30.3H246.807V35.13H249.39ZM249.39 42.291C250.006 42.291 250.517 42.081 250.923 41.661C251.329 41.241 251.532 40.709 251.532 40.065C251.532 39.435 251.329 38.91 250.923 38.49C250.517 38.056 250.006 37.839 249.39 37.839H246.807V42.291H249.39ZM270.429 37.377C271.717 38.119 272.361 39.239 272.361 40.737C272.361 41.983 271.92 43.005 271.038 43.803C270.156 44.601 269.071 45 267.783 45H261.546V30.3H267.342C268.602 30.3 269.659 30.692 270.513 31.476C271.381 32.246 271.815 33.233 271.815 34.437C271.815 35.655 271.353 36.635 270.429 37.377ZM267.342 33.009H264.444V36.243H267.342C267.79 36.243 268.161 36.089 268.455 35.781C268.763 35.473 268.917 35.088 268.917 34.626C268.917 34.164 268.77 33.779 268.476 33.471C268.182 33.163 267.804 33.009 267.342 33.009ZM267.783 42.291C268.273 42.291 268.679 42.13 269.001 41.808C269.323 41.472 269.484 41.052 269.484 40.548C269.484 40.058 269.323 39.652 269.001 39.33C268.679 38.994 268.273 38.826 267.783 38.826H264.444V42.291H267.783ZM282.766 45V36.033L276.466 45H274.261V30.3H277.159V39.288L283.459 30.3H285.664V45H282.766ZM299.688 42.228H301.263V47.814H298.365V45H290.238V47.814H287.34V42.228H288.768C289.58 41.094 289.986 39.435 289.986 37.251V30.3H299.688V42.228ZM291.876 42.228H296.79V33.009H292.884V37.293C292.884 39.421 292.548 41.066 291.876 42.228ZM306.095 42.228H312.29V45H303.197V30.3H312.185V33.072H306.095V36.201H311.66V38.931H306.095V42.228ZM326.599 43.089C325.115 44.559 323.309 45.294 321.181 45.294C319.053 45.294 317.247 44.559 315.763 43.089C314.293 41.605 313.558 39.792 313.558 37.65C313.558 35.508 314.293 33.702 315.763 32.232C317.247 30.748 319.053 30.006 321.181 30.006C323.309 30.006 325.115 30.748 326.599 32.232C328.083 33.702 328.825 35.508 328.825 37.65C328.825 39.792 328.083 41.605 326.599 43.089ZM317.8 41.115C318.71 42.011 319.837 42.459 321.181 42.459C322.525 42.459 323.652 42.011 324.562 41.115C325.472 40.205 325.927 39.05 325.927 37.65C325.927 36.25 325.472 35.095 324.562 34.185C323.652 33.275 322.525 32.82 321.181 32.82C319.837 32.82 318.71 33.275 317.8 34.185C316.89 35.095 316.435 36.25 316.435 37.65C316.435 39.05 316.89 40.205 317.8 41.115ZM131.734 68.089C130.25 69.559 128.444 70.294 126.316 70.294C124.188 70.294 122.382 69.559 120.898 68.089C119.428 66.605 118.693 64.792 118.693 62.65C118.693 60.508 119.428 58.702 120.898 57.232C122.382 55.748 124.188 55.006 126.316 55.006C128.444 55.006 130.25 55.748 131.734 57.232C133.218 58.702 133.96 60.508 133.96 62.65C133.96 64.792 133.218 66.605 131.734 68.089ZM122.935 66.115C123.845 67.011 124.972 67.459 126.316 67.459C127.66 67.459 128.787 67.011 129.697 66.115C130.607 65.205 131.062 64.05 131.062 62.65C131.062 61.25 130.607 60.095 129.697 59.185C128.787 58.275 127.66 57.82 126.316 57.82C124.972 57.82 123.845 58.275 122.935 59.185C122.025 60.095 121.57 61.25 121.57 62.65C121.57 64.05 122.025 65.205 122.935 66.115ZM152.734 70H149.395L144.145 63.112V70H141.247V55.3H144.145V61.789L149.185 55.3H152.524L147.085 62.44L152.734 70ZM165.285 68.089C163.801 69.559 161.995 70.294 159.867 70.294C157.739 70.294 155.933 69.559 154.449 68.089C152.979 66.605 152.244 64.792 152.244 62.65C152.244 60.508 152.979 58.702 154.449 57.232C155.933 55.748 157.739 55.006 159.867 55.006C161.995 55.006 163.801 55.748 165.285 57.232C166.769 58.702 167.511 60.508 167.511 62.65C167.511 64.792 166.769 66.605 165.285 68.089ZM156.486 66.115C157.396 67.011 158.523 67.459 159.867 67.459C161.211 67.459 162.338 67.011 163.248 66.115C164.158 65.205 164.613 64.05 164.613 62.65C164.613 61.25 164.158 60.095 163.248 59.185C162.338 58.275 161.211 57.82 159.867 57.82C158.523 57.82 157.396 58.275 156.486 59.185C155.576 60.095 155.121 61.25 155.121 62.65C155.121 64.05 155.576 65.205 156.486 66.115ZM183.933 55.3V70H181.056V60.466L176.919 67.291H176.583L172.446 60.487V70H169.548V55.3H172.53L176.751 62.251L180.951 55.3H183.933ZM197.655 55.3V70H194.757V58.072H189.57V70H186.672V55.3H197.655ZM209.841 70L208.959 67.354H203.1L202.218 70H199.089L204.234 55.3H207.825L212.991 70H209.841ZM204.024 64.645H208.056L206.04 58.639L204.024 64.645ZM222.777 55.3H225.654V70H222.777V63.91H217.317V70H214.419V55.3H217.317V61.138H222.777V55.3ZM236.89 70V61.033L230.59 70H228.385V55.3H231.283V64.288L237.583 55.3H239.788V70H236.89ZM251.019 70V61.033L244.719 70H242.514V55.3H245.412V64.288L251.712 55.3H253.917V70H251.019Z" fill="white"/>
<path d="M50.5 0C22.6526 0 0 22.6548 0 50.5C0 78.3452 22.6526 101 50.5 101C78.3474 101 101 78.3452 101 50.5C101 22.6548 78.3474 0 50.5 0ZM70.5759 52.2693L41.1177 71.2068C40.7724 71.4307 40.3738 71.5417 39.9792 71.5417C39.634 71.5417 39.2847 71.4553 38.9724 71.2849C38.2942 70.915 37.875 70.208 37.875 69.4375V31.5625C37.875 30.792 38.2942 30.085 38.9724 29.7151C39.6382 29.3494 40.4724 29.3719 41.1177 29.7932L70.5759 48.7307C71.176 49.117 71.5417 49.7849 71.5417 50.5C71.5417 51.2151 71.176 51.8828 70.5759 52.2693Z" fill="white"/>
</svg>
